HIERARCHY
ROOT HipCenter
{
    OFFSET 0.0 0.0 -0.0
    CHANNELS 6 Xposition Yposition Zposition Zrotation Xrotation Yrotation
    JOINT Spine
    {
        OFFSET 0.0 30.68348503112793 0.0
        CHANNELS 3 Zrotation Xrotation Yrotation
        JOINT ShoulderCenter
        {
            OFFSET 0.0 22.617107391357422 0.0
            CHANNELS 3 Zrotation Xrotation Yrotation
            JOINT LeftShoulder
            {
                OFFSET 17.170751571655273 0.0 0.0
                CHANNELS 3 Zrotation Xrotation Yrotation
                JOINT LeftElbow
                {
                    OFFSET 23.885208129882812 0.0 0.0
                    CHANNELS 3 Zrotation Xrotation Yrotation
                    JOINT LeftWrist
                    {
                        OFFSET 21.703947067260742 0.0 0.0
                        CHANNELS 3 Zrotation Xrotation Yrotation
                        JOINT LeftHand
                        {
                            OFFSET 6.187966346740723 0.0 0.0
                            CHANNELS 3 Zrotation Xrotation Yrotation
                            End Site
                            {
                                OFFSET 2.475186586380005 0.0 0.0
                            }
                        }
                    }
                }
            }
            JOINT RightShoulder
            {
                OFFSET -17.170751571655273 0.0 0.0
                CHANNELS 3 Zrotation Xrotation Yrotation
                JOINT RightElbow
                {
                    OFFSET -23.885208129882812 0.0 0.0
                    CHANNELS 3 Zrotation Xrotation Yrotation
                    JOINT RightWrist
                    {
                        OFFSET -21.703947067260742 0.0 0.0
                        CHANNELS 3 Zrotation Xrotation Yrotation
                        JOINT RightHand
                        {
                            OFFSET -6.187966346740723 0.0 0.0
                            CHANNELS 3 Zrotation Xrotation Yrotation
                            End Site
                            {
                                OFFSET -2.475186586380005 0.0 0.0
                            }
                        }
                    }
                }
            }
            End Site
            {
                OFFSET 0.0 9.046843528747559 0.0
            }
        }
    }
    JOINT LeftHip
    {
        OFFSET 7.2617034912109375 0.0 0.0
        CHANNELS 3 Zrotation Xrotation Yrotation
        JOINT LeftKnee
        {
            OFFSET 0.0 -31.834144592285156 0.0
            CHANNELS 3 Zrotation Xrotation Yrotation
            JOINT LeftAnkle
            {
                OFFSET 0.0 -31.83716583251953 0.0
                CHANNELS 3 Zrotation Xrotation Yrotation
                JOINT LeftFoot
                {
                    OFFSET 0.0 -9.606727600097656 0.0
                    CHANNELS 3 Zrotation Xrotation Yrotation
                    End Site
                    {
                        OFFSET 0.0 0.0 3.842690944671631
                    }
                }
            }
        }
    }
    JOINT RightHip
    {
        OFFSET -7.2617034912109375 0.0 0.0
        CHANNELS 3 Zrotation Xrotation Yrotation
        JOINT RightKnee
        {
            OFFSET 0.0 -31.834144592285156 0.0
            CHANNELS 3 Zrotation Xrotation Yrotation
            JOINT RightAnkle
            {
                OFFSET 0.0 -31.83716583251953 0.0
                CHANNELS 3 Zrotation Xrotation Yrotation
                JOINT RightFoot
                {
                    OFFSET 0.0 -9.606727600097656 0.0
                    CHANNELS 3 Zrotation Xrotation Yrotation
                    End Site
                    {
                        OFFSET 0.0 0.0 3.842690944671631
                    }
                }
            }
        }
    }
}
MOTION
Frames: 6
Frame Time: 0.03333333333333333
4.302299976348877 -16.659900665283203 -275.5577087402344 -1.4934025429187268 3.531861717942318 -176.57460809354754 -0.06147459867467521 -1.8411340095686284 0.06968588872556793 -2.4837504406072778e-08 -1.805415777074341e-07 -1.0234850479749409 -32.790685530269265 1.7305570994944837 23.29661875683608 2.762487111901076e-06 1.6614644141370222e-06 147.69046911843253 1.8107295514757323e-06 -22.104401357944273 97.2372666416337 -1.5902773407317584e-15 -2.2069531490250793e-32 1.5902773407317584e-15 -11.296609572092219 -53.5949988733267 -63.55418207677345 2.2337285295979307e-06 3.82523206059397e-06 -59.72645284922884 1.705746023005383e-05 -77.81301725130692 -2.80871144269127 6.3611093629270335e-15 0.0 0.0 4.592467102193804 -10.402878958359878 25.381963630482762 3.49904934152203 13.671846097814525 -0.46840712934737155 43.410791690126494 49.0138413433133 -37.371306949001706 7.951386703658792e-16 -2.2069531490250793e-32 -3.1805546814635168e-15 -3.251369790039801 -10.045639756239853 -26.051878681000463 -7.117597028590722 10.562913481860033 0.02514547874309192 -34.42102022578877 35.22336304291019 21.664397425840715 0.0 0.0 -1.5902773407317584e-15
4.293600082397461 -16.706499099731445 -275.5198974609375 -1.6026419705365345 3.5604528366778943 -176.66896638480773 0.02678712258112263 -1.885451860597255 0.07939597909947313 9.85302568775719e-08 -1.1834196053619065e-08 -1.3037730745183673 -50.955063716419126 18.319386163405213 29.23313151078017 -1.3642105340778437e-06 2.461321745051248e-07 151.46950292472297 -4.997672005036202e-06 -22.461920616093032 80.78313787638206 6.361109362927035e-15 0.0 0.0 -20.06546245181454 -51.040516737703406 -65.54098939878894 -4.9642983490874925e-06 9.293351637221146e-06 -68.80422119391707 -2.5544086210558228e-05 -69.55999094617391 -2.875743684871242 -6.3611093629270335e-15 0.0 0.0 4.712232179121379 -10.279694464498096 25.423449904935502 3.1457224217241158 14.116049062044894 -0.47881790588946305 41.656138455769565 47.616753269350845 -35.08467134801091 -7.95138670365879e-16 -1.1034765745125397e-32 1.590277340731758e-15 -3.3865406469651043 -9.928679420389354 -26.018383119840607 -7.225286859386681 10.678007607609576 0.06056312312165103 -32.381079323301044 33.445191976145864 19.48661515657301 0.0 0.0 7.951386703658794e-16
4.30810022354126 -16.663700103759766 -275.36981201171875 -1.60360280334816 3.618075665942818 -177.26203701705438 0.013630043524303337 -1.8538191575235476 0.08290734438923231 -8.87386662841546e-08 6.315385527828071e-07 -0.5351037534130735 -84.78881905209478 23.551365606390497 0.7535840412450161 3.142639138799318e-06 -3.321944171816261e-06 149.39565743106695 8.422910617032874e-07 23.389656730143034 56.372621618961 -6.361109362927035e-15 -1.5902773407317588e-15 -8.827812596100317e-32 -29.055165295786892 -47.63802575345731 -70.65589026113763 4.341118523061713e-06 5.4135966916480535e-08 -71.41593224302908 6.287829996063971e-06 -63.203393062876835 -2.892979341258424 6.3611093629270335e-15 8.827812596100317e-32 1.5902773407317584e-15 4.798862553722502 -10.286893765089193 25.593052655043348 3.15070424729572 14.313982863409025 -0.5298640754377026 42.144436473094466 48.6323306379774 -36.14165187314951 0.0 0.0 -7.951386703658791e-16 -3.2542152818193983 -10.11285619556644 -25.83780221294402 -7.344790087171133 10.770786304067272 0.026304037586919977 -34.0582494092168 33.425798806139596 20.52152169082267 4.770832022195274e-15 6.620859447075238e-32 1.5902773407317582e-15
4.289100170135498 -16.6195011138916 -275.4093017578125 -1.6292242348528683 3.6750492222659785 -177.41895066289774 0.004050468787228908 -1.8185237233346245 0.07836390634397322 5.6032613143294405e-08 -3.1644203000958354e-07 -0.37339366938622076 -80.79528498324984 21.405104908716265 0.002234513670274928 3.1987668144218636e-07 1.902124010116151e-06 149.99522518979882 8.69749265618234e-07 28.16270391411796 72.62639620170708 0.0 0.0 0.0 78.48321351084087 -31.04283578989784 -3.570811756814514 1.5570207775772476e-06 3.840545151064515e-08 -42.76623576840103 -179.99999711215582 -32.488093548262675 177.4715729109676 0.0 -1.5902773407317584e-15 0.0 4.9943966670737785 -10.219656580056359 25.60314727480796 2.6431450804530967 14.380197652189638 -0.4349062304629298 39.91756595306766 47.80883823168634 -33.34960897529679 -1.5902773407317582e-15 2.2069531490250793e-32 -1.5902773407317582e-15 -3.3084879718771782 -10.120830633367982 -25.793071509181015 -7.339402969920158 10.770428567896792 0.04770771252105325 -34.23720220852853 33.62816022400402 20.829132926159936 7.951386703658792e-16 1.1034765745125397e-32 1.5902773407317584e-15
4.259399890899658 -16.430200576782227 -275.3660888671875 -1.65376700564169 3.6421317201261987 -177.7300997038866 0.0010443267264388515 -1.8267009382640265 0.07298263446822213 7.430868739175059e-08 -5.709654096245005e-07 -0.38710891898737704 -78.02063783515327 29.775300796926704 1.5626922766146918 -1.8058685763570397e-06 4.5981649541935514e-09 150.20405889583262 2.235759690467005e-06 42.97518725158999 28.469796825710002 -6.3611093629270335e-15 0.0 0.0 73.96541525678597 -35.590667519802174 -6.916995212905164 4.9750469706292935e-06 -8.115492801967003e-07 -35.482153197752666 -179.99999835932599 -35.8553987232108 177.59524966423336 6.3611093629270335e-15 -8.827812596100317e-32 -1.5902773407317584e-15 4.8945888971106974 -10.114074717300182 25.597108430702267 2.7643835852974563 14.20221412962476 -0.4173409547490498 38.69454066943891 47.83626199540935 -32.19319829605106 -4.4139062980501586e-32 -6.3611093629270335e-15 -7.951386703658792e-16 -3.38491095627373 -10.24337045330051 -25.752096127175992 -7.169243516979674 10.710771366736424 0.05875207715899658 -33.62109080120003 32.984588686319775 20.116162492186252 2.3854160110976376e-15 0.0 0.0
4.235000133514404 -15.908900260925293 -275.1601867675781 -1.4173625900266504 3.491039138767219 -178.23596558481537 -0.08664996170267232 -1.9232888787690725 0.05170775357420065 -8.72302033229713e-08 4.1509129408559964e-07 -0.7045210098151841 -79.49886810504653 33.43277055989776 5.800045886054696 -4.6237048293770405e-06 -1.2570780383149279e-06 147.19221798927506 -1.8891252788011822e-05 71.52895288265464 33.679039714194424 1.2722218725854067e-14 1.7655625192200634e-31 1.5902773407317584e-15 73.14615553829252 -35.44874665373767 -2.802986288113126 3.7203765917507464e-06 1.676507423629092e-06 -47.151814707825075 -179.99998968244827 -39.95559797703729 177.31569959983318 -6.3611093629270335e-15 1.7655625192200634e-31 -3.1805546814635168e-15 4.860211829567143 -10.44029470312762 25.48635683484298 3.0562214773887195 13.431617894659851 -0.3219766796985936 31.706211616342877 44.044994401046296 -24.342864377794516 1.5902773407317584e-15 6.3611093629270335e-15 1.5902773407317584e-15 -3.1455488816771386 -10.756487252449597 -25.61292174594396 -6.9740837607343495 10.82178087352978 0.08865528371141701 -35.068644580160104 33.57303731502534 21.55020682331163 -7.951386703658792e-16 1.1034765745125397e-32 -1.5902773407317584e-15
